<?xml version="1.0" standalone="no"?>
<!DOCTYPE svg PUBLIC "-//W3C//DTD SVG 20010904//EN"
 "http://www.w3.org/TR/2001/REC-SVG-20010904/DTD/svg10.dtd">
<svg version="1.0" xmlns="http://www.w3.org/2000/svg"
 width="682.000000pt" height="635.000000pt" viewBox="0 0 682.000000 635.000000"
 preserveAspectRatio="xMidYMid meet">

<g transform="translate(0.000000,635.000000) scale(0.100000,-0.100000)"
fill="#000000" stroke="none">
<path d="M899 5351 c-31 -31 -36 -58 -18 -94 6 -12 200 -211 431 -443 l420
-421 -232 -2 c-199 -2 -241 -5 -296 -22 -116 -36 -219 -145 -243 -258 -15 -69
-16 -2370 -2 -2434 32 -137 124 -241 246 -277 29 -9 505 -15 1801 -23 l1761
-12 363 -363 c199 -200 373 -367 385 -372 71 -27 137 50 101 117 -15 29 -4573
4588 -4616 4616 -36 25 -68 21 -101 -12z m1160 -1285 l164 -164 -28 -49 c-58
-101 -107 -204 -135 -289 -137 -404 -79 -864 153 -1215 298 -452 808 -690
1342 -629 98 12 249 48 333 80 61 23 212 99 259 130 l32 21 206 -205 c114
-113 203 -206 198 -206 -97 -2 -1392 3 -2224 9 -1073 7 -1096 8 -1135 27 -45
24 -79 70 -95 127 -14 54 -13 2325 2 2379 12 48 49 91 96 114 38 19 112 23
563 32 l105 2 164 -164z m382 -378 c25 -23 25 -23 -15 -98 -181 -342 -144
-784 91 -1100 161 -215 421 -372 678 -409 217 -32 450 5 634 101 40 21 75 38
78 38 7 0 163 -162 163 -169 0 -10 -79 -55 -165 -94 -565 -252 -1233 -57
-1572 461 -260 396 -278 906 -47 1320 l36 64 51 -48 c27 -27 58 -57 68 -66z
m767 -768 c312 -311 573 -573 581 -583 12 -16 7 -20 -60 -51 -396 -182 -878
-45 -1124 319 -98 144 -144 284 -152 460 -8 173 14 288 83 438 l26 59 40 -39
c22 -21 295 -292 606 -603z"/>
<path d="M3095 5200 c-551 -5 -561 -6 -624 -28 -78 -28 -137 -68 -186 -124
-35 -42 -212 -390 -219 -432 -4 -26 18 -72 39 -80 35 -13 82 -6 103 17 11 12
59 100 106 196 46 95 97 186 112 202 14 15 49 38 78 50 l51 23 788 8 c783 8
789 8 835 -12 127 -56 166 -105 247 -313 118 -302 154 -368 230 -413 94 -55
115 -58 472 -64 l331 -5 43 -30 c74 -52 92 -102 102 -279 4 -83 5 -603 2
-1155 -7 -1081 -6 -1053 -60 -1131 -36 -52 -62 -67 -152 -90 -87 -22 -101 -32
-109 -81 -4 -26 0 -41 16 -62 19 -24 28 -27 79 -27 159 0 295 101 363 271 22
54 22 63 32 1009 6 620 6 1043 -1 1205 -9 249 -10 250 -41 317 -38 83 -107
154 -187 194 l-60 29 -335 5 c-334 5 -336 5 -384 30 -45 24 -51 31 -96 130
-26 58 -72 167 -101 244 -78 207 -150 290 -315 368 l-69 33 -265 1 c-146 0
-517 -2 -825 -6z"/>
<path d="M3280 4514 c-14 -2 -63 -9 -110 -15 -106 -14 -251 -57 -355 -104 -70
-32 -245 -131 -245 -139 0 -2 21 -25 47 -51 l47 -48 30 18 c276 161 473 214
756 202 422 -18 794 -240 1028 -612 66 -106 132 -284 159 -429 22 -121 22
-323 0 -445 -28 -154 -94 -325 -171 -446 -20 -30 -36 -59 -36 -63 0 -15 88
-94 98 -88 14 8 115 180 142 241 36 83 67 175 91 275 21 84 24 119 24 300 0
164 -4 221 -18 285 -123 530 -491 926 -996 1070 -143 41 -381 64 -491 49z"/>
<path d="M3155 4140 c-130 -28 -311 -99 -331 -131 -4 -6 13 -31 39 -57 l46
-46 68 32 c144 65 202 77 378 77 136 0 172 -4 239 -23 402 -116 669 -466 668
-877 0 -142 -24 -256 -79 -378 l-36 -78 43 -44 c25 -25 48 -45 52 -45 13 0 67
102 98 188 56 154 74 341 50 515 -45 318 -263 621 -555 769 -212 108 -461 144
-680 98z"/>
<path d="M5098 4036 c-128 -35 -207 -146 -195 -276 11 -128 105 -224 233 -237
249 -26 388 284 202 452 -68 62 -155 84 -240 61z m141 -135 c83 -59 87 -173 9
-231 -120 -88 -276 41 -212 176 19 41 33 52 81 70 44 15 87 10 122 -15z"/>
</g>
</svg>
